<svg width="193" height="83" viewBox="0 0 193 83" fill="none" xmlns="http://www.w3.org/2000/svg">
<rect x="18" y="4" width="15" height="30" rx="7.5" fill="#B879F0"/>
<rect y="4" width="15" height="30" rx="7.5" fill="black"/>
<rect x="14" y="51" width="46" height="20" rx="10" fill="black"/>
<g filter="url(#filter0_d_25_67)">
<path d="M48.08 35.6C47.3067 35.6 46.5067 35.5467 45.68 35.44C44.88 35.3333 44.0667 35.1867 43.24 35V29.08C43.7733 29.24 44.3333 29.3733 44.92 29.48C45.5333 29.56 46.1333 29.6 46.72 29.6C48.2933 29.6 49.4533 29.1733 50.2 28.32C50.9467 27.4667 51.32 26.1067 51.32 24.24V5H58.4V24.28C58.4 27.9867 57.5067 30.8 55.72 32.72C53.9333 34.64 51.3867 35.6 48.08 35.6ZM64.335 35V5H71.415V35H64.335ZM94.0628 35.6C92.6228 35.6 91.4628 35.1733 90.5828 34.32C89.7028 33.44 89.0495 32.1867 88.6228 30.56L84.3828 13.76C84.3561 13.7067 84.3161 13.6933 84.2628 13.72C84.2095 13.72 84.1828 13.7467 84.1828 13.8V34.96H77.3428V10.6C77.3428 8.62667 77.9028 7.10667 79.0228 6.04C80.1428 4.94666 81.5428 4.4 83.2228 4.4C86.3428 4.4 88.4095 6.30666 89.4228 10.12L93.9028 26.52C93.9295 26.6 93.9695 26.64 94.0228 26.64C94.0761 26.64 94.1161 26.6 94.1428 26.52L98.5028 10.12C99.0095 8.25333 99.7828 6.84 100.823 5.88C101.889 4.89333 103.236 4.4 104.863 4.4C106.543 4.4 107.929 4.94666 109.023 6.04C110.143 7.10667 110.703 8.62667 110.703 10.6V34.96H103.903V13.52C103.903 13.4667 103.876 13.4267 103.823 13.4C103.769 13.3733 103.729 13.4 103.703 13.48L99.4228 30.56C99.0228 32.1867 98.3828 33.44 97.5028 34.32C96.6495 35.1733 95.5028 35.6 94.0628 35.6ZM129.68 35.6C126.8 35.6 124.293 34.9733 122.16 33.72C120.053 32.44 118.413 30.64 117.24 28.32C116.093 26 115.52 23.24 115.52 20.04C115.52 16.84 116.093 14.0667 117.24 11.72C118.413 9.37333 120.053 7.57333 122.16 6.32C124.293 5.04 126.8 4.4 129.68 4.4C132.586 4.4 135.093 5.04 137.2 6.32C139.306 7.57333 140.933 9.37333 142.08 11.72C143.253 14.0667 143.84 16.84 143.84 20.04C143.84 23.24 143.253 26 142.08 28.32C140.933 30.64 139.306 32.44 137.2 33.72C135.093 34.9733 132.586 35.6 129.68 35.6ZM129.68 29.4C131.813 29.4 133.506 28.56 134.76 26.88C136.013 25.2 136.64 22.92 136.64 20.04C136.64 17.1333 136.013 14.84 134.76 13.16C133.506 11.4533 131.813 10.6 129.68 10.6C127.546 10.6 125.853 11.4533 124.6 13.16C123.346 14.84 122.72 17.1333 122.72 20.04C122.72 22.92 123.346 25.2 124.6 26.88C125.853 28.56 127.546 29.4 129.68 29.4ZM160.392 35.6C158.872 35.6 157.672 35.08 156.792 34.04C155.912 32.9733 155.072 31.2533 154.272 28.88L146.112 5H153.432L160.432 26.4C160.459 26.5067 160.499 26.56 160.552 26.56C160.605 26.5333 160.645 26.48 160.672 26.4L167.832 5H175.112L166.552 28.8C165.992 30.3733 165.432 31.6667 164.872 32.68C164.339 33.6667 163.725 34.4 163.032 34.88C162.339 35.36 161.459 35.6 160.392 35.6Z" fill="black"/>
<path d="M71.3272 75V45H83.3672C86.2205 45 88.6739 45.6133 90.7272 46.84C92.8072 48.04 94.4072 49.76 95.5272 52C96.6739 54.2133 97.2472 56.8667 97.2472 59.96C97.2472 63.0267 96.6739 65.6933 95.5272 67.96C94.4072 70.2 92.8072 71.9333 90.7272 73.16C88.6739 74.3867 86.2205 75 83.3672 75H71.3272ZM78.2872 69.24H83.3672C85.4472 69.24 87.0739 68.44 88.2472 66.84C89.4472 65.2133 90.0472 62.92 90.0472 59.96C90.0472 57.0267 89.4472 54.76 88.2472 53.16C87.0739 51.56 85.4472 50.76 83.3672 50.76H78.2872V69.24ZM115.578 75.6C112.698 75.6 110.191 74.9733 108.058 73.72C105.951 72.44 104.311 70.64 103.138 68.32C101.991 66 101.418 63.24 101.418 60.04C101.418 56.84 101.991 54.0667 103.138 51.72C104.311 49.3733 105.951 47.5733 108.058 46.32C110.191 45.04 112.698 44.4 115.578 44.4C118.485 44.4 120.991 45.04 123.098 46.32C125.205 47.5733 126.831 49.3733 127.978 51.72C129.151 54.0667 129.738 56.84 129.738 60.04C129.738 63.24 129.151 66 127.978 68.32C126.831 70.64 125.205 72.44 123.098 73.72C120.991 74.9733 118.485 75.6 115.578 75.6ZM115.578 69.4C117.711 69.4 119.405 68.56 120.658 66.88C121.911 65.2 122.538 62.92 122.538 60.04C122.538 57.1333 121.911 54.84 120.658 53.16C119.405 51.4533 117.711 50.6 115.578 50.6C113.445 50.6 111.751 51.4533 110.498 53.16C109.245 54.84 108.618 57.1333 108.618 60.04C108.618 62.92 109.245 65.2 110.498 66.88C111.751 68.56 113.445 69.4 115.578 69.4ZM148.077 75.6C145.171 75.6 142.664 74.9733 140.557 73.72C138.451 72.44 136.824 70.64 135.677 68.32C134.531 65.9733 133.957 63.2 133.957 60C133.957 56.8 134.517 54.04 135.637 51.72C136.784 49.3733 138.397 47.5733 140.477 46.32C142.584 45.04 145.051 44.4 147.877 44.4C150.411 44.4 152.611 44.88 154.477 45.84C156.371 46.8 157.851 48.1333 158.917 49.84C159.984 51.5467 160.544 53.5067 160.597 55.72H153.557C153.344 54.2267 152.744 53 151.757 52.04C150.797 51.08 149.531 50.6 147.957 50.6C145.851 50.6 144.184 51.4533 142.957 53.16C141.757 54.8667 141.157 57.16 141.157 60.04C141.157 62.8667 141.757 65.1467 142.957 66.88C144.184 68.6133 145.917 69.48 148.157 69.48C149.437 69.48 150.464 69.2133 151.237 68.68C152.037 68.1467 152.637 67.4533 153.037 66.6C153.437 65.72 153.691 64.7867 153.797 63.8H160.797C160.691 66.28 160.091 68.4 158.997 70.16C157.931 71.92 156.464 73.2667 154.597 74.2C152.757 75.1333 150.584 75.6 148.077 75.6ZM176.823 75.6C174.476 75.6 172.343 75.2 170.423 74.4C168.53 73.6 167.01 72.44 165.863 70.92C164.743 69.3733 164.183 67.48 164.183 65.24H171.303C171.436 66.7333 171.996 67.84 172.983 68.56C173.97 69.28 175.196 69.64 176.663 69.64C178.103 69.64 179.29 69.3867 180.223 68.88C181.156 68.3733 181.623 67.6667 181.623 66.76C181.623 65.9867 181.343 65.4133 180.783 65.04C180.223 64.6667 179.37 64.3067 178.223 63.96L171.823 62.08C170.57 61.7067 169.383 61.24 168.263 60.68C167.143 60.0933 166.236 59.2933 165.543 58.28C164.876 57.2667 164.543 55.8933 164.543 54.16C164.543 52.16 165.023 50.44 165.983 49C166.943 47.5333 168.303 46.4 170.063 45.6C171.823 44.8 173.89 44.4 176.263 44.4C179.703 44.4 182.49 45.24 184.623 46.92C186.783 48.6 188.023 50.9867 188.343 54.08H181.143C180.583 51.5467 178.863 50.28 175.983 50.28C174.596 50.28 173.53 50.5467 172.783 51.08C172.063 51.6133 171.703 52.3333 171.703 53.24C171.703 53.9067 171.93 54.4667 172.383 54.92C172.836 55.3733 173.556 55.7467 174.543 56.04L181.223 58.04C183.783 58.7867 185.65 59.8133 186.823 61.12C187.996 62.4267 188.583 64.1333 188.583 66.24C188.583 68.1067 188.09 69.7467 187.103 71.16C186.143 72.5467 184.783 73.64 183.023 74.44C181.263 75.2133 179.196 75.6 176.823 75.6Z" fill="#B879F0"/>
</g>
<defs>
<filter id="filter0_d_25_67" x="39.24" y="3.40002" width="153.343" height="79.2" filterUnits="userSpaceOnUse" color-interpolation-filters="sRGB">
<feFlood flood-opacity="0" result="BackgroundImageFix"/>
<feColorMatrix in="SourceAlpha" type="matrix" values="0 0 0 0 0 0 0 0 0 0 0 0 0 0 0 0 0 0 127 0" result="hardAlpha"/>
<feOffset dy="3"/>
<feGaussianBlur stdDeviation="2"/>
<feComposite in2="hardAlpha" operator="out"/>
<feColorMatrix type="matrix" values="0 0 0 0 0 0 0 0 0 0 0 0 0 0 0 0 0 0 0.25 0"/>
<feBlend mode="normal" in2="BackgroundImageFix" result="effect1_dropShadow_25_67"/>
<feBlend mode="normal" in="SourceGraphic" in2="effect1_dropShadow_25_67" result="shape"/>
</filter>
</defs>
</svg>
